<svg aria-hidden="true" style="position:absolute;width:0;height:0" xmlns="http://www.w3.org/2000/svg" overflow="hidden"><defs><symbol id="icon-tablet" viewBox="0 0 25 32"><path d="M1.5 32h22c.827 0 1.5-.673 1.5-1.5v-29c0-.827-.673-1.5-1.5-1.5h-22C.673 0 0 .673 0 1.5v29c0 .827.673 1.5 1.5 1.5zM1 1.5a.5.5 0 01.5-.5h22a.5.5 0 01.5.5v29a.5.5 0 01-.5.5h-22a.5.5 0 01-.5-.5v-29zM3.5 27h18a.5.5 0 00.5-.5v-23a.5.5 0 00-.5-.5h-18a.5.5 0 00-.5.5v23a.5.5 0 00.5.5zM4 4h17v22H4V4zm8 25a1 1 0 102 0 1 1 0 00-2 0z"/></symbol><symbol id="icon-map" viewBox="0 0 32 32"><path d="M30.999 13.999a1 1 0 00-1 1v11.323l-8 3.2V18.999a1 1 0 00-2 0V29.52l-8-3.2V10.477l4.634 1.854a1 1 0 10.742-1.858l-5.986-2.396h-.002l-.016-.006a.992.992 0 00-.742 0l-.018.006h-.002L.628 12.071a1 1 0 00-.628.928v17.999a1.002 1.002 0 001.372.928l9.627-3.85 9.609 3.844h.002l.018.008a.992.992 0 00.742 0l.018-.008h.002l9.981-3.992c.376-.154.626-.52.626-.93V14.999a1 1 0 00-1-1zM10 26.32l-8 3.2V13.675l8-3.2V26.32zM24.999 4c-1.654 0-3 1.346-3 3s1.346 3 3 3 3-1.346 3-3-1.346-3-3-3zm0 4a1 1 0 110-2 1 1 0 010 2z"/><path d="M24.999 0c-3.86 0-7 3.14-7 7 0 3.592 5.616 9.953 6.256 10.667.19.21.46.332.744.332s.554-.122.744-.332c.64-.714 6.256-7.076 6.256-10.667 0-3.86-3.14-7-7-7zm0 15.473c-2.184-2.59-5-6.566-5-8.473 0-2.756 2.244-5 5-5s5 2.244 5 5c0 1.906-2.816 5.884-5 8.473z"/></symbol><symbol id="icon-message" viewBox="0 0 32 32"><path d="M29.188 5.038H2.813A2.816 2.816 0 000 7.851V24.15a2.816 2.816 0 002.813 2.813h26.375a2.816 2.816 0 002.813-2.813V7.851a2.816 2.816 0 00-2.813-2.813zm-.368 1.875l-11.705 9.746a1.745 1.745 0 01-2.232 0L3.178 6.913h25.641zM1.875 8.267l9.231 7.686-9.231 6.143V8.266zm27.313 16.82H2.813a.94.94 0 01-.919-.751l10.715-7.131 1.075.895c.671.559 1.493.838 2.316.838s1.645-.279 2.316-.838l1.075-.895 10.715 7.131a.94.94 0 01-.919.751zm.937-2.991l-9.231-6.143 9.231-7.687v13.83z"/></symbol><symbol id="icon-telephone" viewBox="0 0 32 32"><path d="M30.125 6h-8.907c.105-.596.412-.787.836-1.049.535-.331 1.268-.784 1.268-2.077a.625.625 0 00-1.25 0c0 .596-.212.727-.675 1.014-.552.342-1.286.797-1.438 2.112h-7.457V4.125a1.877 1.877 0 00-1.875-1.875h-5a1.877 1.877 0 00-1.875 1.875V6H1.877A1.877 1.877 0 00.002 7.875v20c0 1.034.841 1.875 1.875 1.875h28.25a1.877 1.877 0 001.875-1.875v-20A1.877 1.877 0 0030.127 6zM5 4.125c0-.345.28-.625.625-.625h5c.345 0 .625.28.625.625v20c0 .345-.28.625-.625.625h-5A.625.625 0 015 24.125zm25.75 23.75c0 .345-.28.625-.625.625H1.875a.625.625 0 01-.625-.625v-20c0-.345.28-.625.625-.625H3.75v16.875c0 1.034.841 1.875 1.875 1.875h5a1.877 1.877 0 001.875-1.875V7.25h17.625c.345 0 .625.28.625.625z"/><path d="M26.625 10.688h-10a1.25 1.25 0 000 2.5h10a1.25 1.25 0 000-2.5zM16 17.563h1.25c.345 0 .625-.28.625-.625v-1.25a.625.625 0 00-.625-.625H16a.625.625 0 00-.625.625v1.25c0 .345.28.625.625.625zM21 17.563h1.25c.345 0 .625-.28.625-.625v-1.25a.625.625 0 00-.625-.625H21a.625.625 0 00-.625.625v1.25c0 .345.28.625.625.625zM26 17.563h1.25c.345 0 .625-.28.625-.625v-1.25a.625.625 0 00-.625-.625H26a.625.625 0 00-.625.625v1.25c0 .345.28.625.625.625zM16 21.313h1.25c.345 0 .625-.28.625-.625v-1.25a.625.625 0 00-.625-.625H16a.625.625 0 00-.625.625v1.25c0 .345.28.625.625.625zM21 21.313h1.25c.345 0 .625-.28.625-.625v-1.25a.625.625 0 00-.625-.625H21a.625.625 0 00-.625.625v1.25c0 .345.28.625.625.625zM26 21.313h1.25c.345 0 .625-.28.625-.625v-1.25a.625.625 0 00-.625-.625H26a.625.625 0 00-.625.625v1.25c0 .345.28.625.625.625zM16 25.063h1.25c.345 0 .625-.28.625-.625v-1.25a.625.625 0 00-.625-.625H16a.625.625 0 00-.625.625v1.25c0 .345.28.625.625.625zM21 25.063h1.25c.345 0 .625-.28.625-.625v-1.25a.625.625 0 00-.625-.625H21a.625.625 0 00-.625.625v1.25c0 .345.28.625.625.625zM26 25.063h1.25c.345 0 .625-.28.625-.625v-1.25a.625.625 0 00-.625-.625H26a.625.625 0 00-.625.625v1.25c0 .345.28.625.625.625z"/></symbol><symbol id="icon-butterfly" viewBox="0 0 32 32"><path fill="var(--color1, #ff817e)" d="M15.974 27.416s17.019-8.823 4.362-24.803c0 0-.836 4.735-5.629 8.379 0 0-6.008 4.963-2.625 11.99 0 0-2.73-1.972-5.767-1.287 0 0-3.383 1.254-6.315-.15 0 0 2.919 11.527 13.982 6.576 0 0-4.193.679-7.889-2.521 0 0 4.147 2.423 8.313 1.633 0 0 5.166-5.002 5.682-13.486 0 0 1.247 6.021-4.114 13.669zM30.87 11.768c-1.078-.627-2.462-.255-3.082.836s-.248 2.488.829 3.115a2.231 2.231 0 001.567.255c-.562 1.607-4.408 11.154-16.424 13.407 0 0 12.682-.784 18.064-14.74.007-.013.007-.026.007-.033a2.288 2.288 0 00-.96-2.841z"/></symbol><symbol id="icon-facebook" viewBox="0 0 32 32"><path d="M21.329 5.313h2.921V.225C23.746.156 22.013 0 19.994 0c-4.212 0-7.097 2.649-7.097 7.519V12H8.249v5.688h4.648V32h5.699V17.689h4.46l.708-5.688h-5.169V8.082c.001-1.644.444-2.769 2.735-2.769z"/></symbol><symbol id="icon-google-plus" viewBox="0 0 32 32"><path d="M20.694 0h-7.632C9.661 0 7.307.746 5.189 2.496 3.523 3.934 2.528 6.023 2.528 8.085c0 3.177 2.422 6.554 6.911 6.554.432 0 .909-.044 1.331-.084l-.062.151c-.18.432-.351.84-.351 1.477 0 1.239.598 2.004 1.176 2.742l.073.094-.129.009c-1.854.127-5.304.364-7.824 1.913C.676 22.711.445 25.285.445 26.032c0 2.97 2.768 5.969 8.953 5.969 7.191 0 10.954-3.968 10.954-7.886.001-2.899-1.699-4.33-3.503-5.849l-1.522-1.184c-.47-.39-1.056-.874-1.056-1.773 0-.883.586-1.466 1.103-1.98l.054-.055c1.644-1.294 3.506-2.762 3.506-5.937 0-3.192-1.994-4.841-2.954-5.634h2.533a.17.17 0 00.088-.025L20.783.306c.062-.039.091-.115.071-.186s-.085-.119-.158-.119zm-9.255 30.251c-4.384 0-7.329-2.047-7.329-5.095 0-1.99 1.205-3.436 3.577-4.295 1.9-.639 4.353-.671 4.377-.671.415 0 .624 0 .956.042 3.067 2.183 4.542 3.329 4.542 5.512 0 2.781-2.347 4.508-6.123 4.508zm-.041-16.782c-3.679 0-5.206-4.836-5.206-7.425 0-1.317.299-2.327.915-3.09.669-.836 1.813-1.377 2.917-1.377 3.378 0 5.246 4.54 5.246 7.678 0 .495 0 2.001-1.04 3.047-.7.698-1.838 1.167-2.832 1.167zM31.39 14.946h-4.021v-4.007a.165.165 0 00-.165-.165h-1.73a.165.165 0 00-.165.165v4.007h-4.001a.165.165 0 00-.165.165v1.753c0 .091.074.165.165.165h4.001v4.033c0 .091.074.165.165.165h1.73a.165.165 0 00.165-.165v-4.034h4.021a.165.165 0 00.165-.165v-1.752a.165.165 0 00-.165-.165z"/></symbol><symbol id="icon-instagram" viewBox="0 0 32 32"><path d="M25.319 0H6.681A6.688 6.688 0 000 6.681v18.638A6.688 6.688 0 006.681 32h18.638A6.688 6.688 0 0032 25.319V6.681A6.688 6.688 0 0025.319 0zM6.681 30.125a4.811 4.811 0 01-4.806-4.806V12.771h4.97a9.904 9.904 0 00-.813 3.941c0 5.496 4.472 9.968 9.968 9.968s9.968-4.472 9.968-9.968c0-1.399-.29-2.732-.813-3.941h4.97v12.548a4.811 4.811 0 01-4.806 4.806zm18.638-28.25a4.811 4.811 0 014.806 4.806v4.215H24.09C22.279 8.383 19.327 6.744 16 6.744s-6.279 1.639-8.09 4.152H1.875V6.681a4.811 4.811 0 014.806-4.806zm-1.226 14.837c0 4.462-3.63 8.093-8.093 8.093s-8.093-3.63-8.093-8.093S11.537 8.619 16 8.619s8.093 3.63 8.093 8.093z"/><path d="M24.831 5.313h1.875v1.875h-1.875zM10.305 16.712c0 3.14 2.555 5.695 5.695 5.695s5.695-2.555 5.695-5.695S19.14 11.017 16 11.017s-5.695 2.555-5.695 5.695zm9.515 0c0 2.106-1.714 3.82-3.82 3.82s-3.82-1.714-3.82-3.82 1.714-3.82 3.82-3.82 3.82 1.714 3.82 3.82z"/></symbol><symbol id="icon-twitter" viewBox="0 0 32 32"><path d="M32 6.078c-1.19.522-2.458.868-3.78 1.036a6.523 6.523 0 002.886-3.626 13.11 13.11 0 01-4.16 1.588A6.574 6.574 0 0022.154 3c-3.632 0-6.556 2.948-6.556 6.562 0 .52.044 1.02.152 1.496-5.454-.266-10.28-2.88-13.522-6.862a6.605 6.605 0 00-.898 3.316 6.57 6.57 0 002.914 5.452 6.479 6.479 0 01-2.964-.808v.072c0 3.188 2.274 5.836 5.256 6.446a6.548 6.548 0 01-1.72.216 5.8 5.8 0 01-1.242-.112c.85 2.598 3.262 4.508 6.13 4.57a13.182 13.182 0 01-8.134 2.798c-.538 0-1.054-.024-1.57-.09A18.469 18.469 0 0010.064 29c12.072 0 18.672-10 18.672-18.668 0-.29-.01-.57-.024-.848A13.087 13.087 0 0032 6.078z"/></symbol><symbol id="icon-vimeo" viewBox="0 0 32 32"><path d="M31.988 8.563c-.144 3.113-2.319 7.381-6.525 12.794-4.35 5.65-8.031 8.481-11.044 8.481-1.863 0-3.444-1.719-4.731-5.163-.863-3.156-1.719-6.313-2.581-9.469-.956-3.444-1.981-5.162-3.081-5.162-.237 0-1.075.506-2.513 1.506L.007 9.612A391.952 391.952 0 004.676 5.45C6.782 3.631 8.364 2.675 9.42 2.575c2.487-.237 4.025 1.463 4.6 5.106.619 3.931 1.05 6.375 1.294 7.331.719 3.263 1.506 4.894 2.369 4.894.669 0 1.675-1.056 3.019-3.175 1.337-2.113 2.056-3.725 2.156-4.831.194-1.825-.525-2.744-2.156-2.744-.769 0-1.556.175-2.369.525 1.575-5.15 4.575-7.65 9.012-7.506 3.281.087 4.831 2.219 4.644 6.388z"/></symbol></defs></svg>