<svg aria-hidden="true" style="position: absolute; width: 0; height: 0; overflow: hidden;" version="1.1" xmlns="http://www.w3.org/2000/svg" xmlns:xlink="http://www.w3.org/1999/xlink">
<defs>
<symbol id="icon-tablet" viewBox="0 0 25 32">
<path d="M1.5 32h22c0.827 0 1.5-0.673 1.5-1.5v-29c0-0.827-0.673-1.5-1.5-1.5h-22c-0.827 0-1.5 0.673-1.5 1.5v29c0 0.827 0.673 1.5 1.5 1.5zM1 1.5c0-0.276 0.224-0.5 0.5-0.5h22c0.276 0 0.5 0.224 0.5 0.5v29c0 0.276-0.224 0.5-0.5 0.5h-22c-0.276 0-0.5-0.224-0.5-0.5v-29zM3.5 27h18c0.276 0 0.5-0.224 0.5-0.5v-23c0-0.276-0.224-0.5-0.5-0.5h-18c-0.276 0-0.5 0.224-0.5 0.5v23c0 0.276 0.224 0.5 0.5 0.5zM4 4h17v22h-17v-22zM12 29c0 0.552 0.448 1 1 1s1-0.448 1-1c0-0.552-0.448-1-1-1s-1 0.448-1 1z"></path>
</symbol>
<symbol id="icon-map" viewBox="0 0 32 32">
<path d="M30.999 13.999c-0.552 0-1 0.448-1 1v11.323l-8 3.2v-10.523c0-0.552-0.448-1-1-1s-1 0.448-1 1v10.521l-8-3.2v-15.843l4.634 1.854c0.506 0.204 1.094-0.044 1.3-0.558 0.206-0.512-0.044-1.094-0.558-1.3l-5.986-2.396c0 0 0 0-0.002 0l-0.016-0.006c-0.238-0.096-0.504-0.096-0.742 0l-0.018 0.006c0 0 0 0-0.002 0l-9.981 3.994c-0.378 0.152-0.628 0.518-0.628 0.928v17.999c0 0.332 0.166 0.642 0.44 0.828 0.168 0.114 0.362 0.172 0.56 0.172 0.126 0 0.252-0.024 0.372-0.072l9.627-3.85 9.609 3.844c0 0 0 0 0.002 0l0.018 0.008c0.238 0.096 0.504 0.096 0.742 0l0.018-0.008c0 0 0 0 0.002 0l9.981-3.992c0.376-0.154 0.626-0.52 0.626-0.93v-11.999c0-0.552-0.448-1-1-1zM10 26.32l-8 3.2v-15.845l8-3.2v15.845z"></path>
<path d="M24.999 4c-1.654 0-3 1.346-3 3s1.346 3 3 3 3-1.346 3-3-1.346-3-3-3zM24.999 8c-0.552 0-1-0.448-1-1s0.448-1 1-1c0.552 0 1 0.448 1 1s-0.448 1-1 1z"></path>
<path d="M24.999 0c-3.86 0-7 3.14-7 7 0 3.592 5.616 9.953 6.256 10.667 0.19 0.21 0.46 0.332 0.744 0.332s0.554-0.122 0.744-0.332c0.64-0.714 6.256-7.076 6.256-10.667 0-3.86-3.14-7-7-7zM24.999 15.473c-2.184-2.59-5-6.566-5-8.473 0-2.756 2.244-5 5-5s5 2.244 5 5c0 1.906-2.816 5.884-5 8.473z"></path>
</symbol>
<symbol id="icon-message" viewBox="0 0 32 32">
<path d="M29.188 5.038h-26.375c-1.551 0-2.813 1.262-2.813 2.813v16.299c0 1.551 1.262 2.813 2.813 2.813h26.375c1.551 0 2.813-1.262 2.813-2.813v-16.299c0-1.551-1.262-2.813-2.813-2.813zM28.82 6.913l-11.705 9.746c-0.647 0.538-1.585 0.538-2.232 0l-11.705-9.746h25.641zM1.875 8.267l9.231 7.686-9.231 6.143v-13.83zM29.188 25.087h-26.375c-0.453 0-0.832-0.323-0.919-0.751l10.715-7.131 1.075 0.895c0.671 0.559 1.493 0.838 2.316 0.838s1.645-0.279 2.316-0.838l1.075-0.895 10.715 7.131c-0.087 0.428-0.466 0.751-0.919 0.751zM30.125 22.096l-9.231-6.143 9.231-7.687v13.83z"></path>
</symbol>
<symbol id="icon-telephone" viewBox="0 0 32 32">
<path d="M30.125 6h-8.907c0.105-0.596 0.412-0.787 0.836-1.049 0.535-0.331 1.268-0.784 1.268-2.077 0-0.345-0.28-0.625-0.625-0.625s-0.625 0.28-0.625 0.625c0 0.596-0.212 0.727-0.675 1.014-0.552 0.342-1.286 0.797-1.438 2.112h-7.457v-1.875c0-1.034-0.841-1.875-1.875-1.875h-5c-1.034 0-1.875 0.841-1.875 1.875v1.875h-1.875c-1.034 0-1.875 0.841-1.875 1.875v20c0 1.034 0.841 1.875 1.875 1.875h28.25c1.034 0 1.875-0.841 1.875-1.875v-20c0-1.034-0.841-1.875-1.875-1.875zM5 4.125c0-0.345 0.28-0.625 0.625-0.625h5c0.345 0 0.625 0.28 0.625 0.625v20c0 0.345-0.28 0.625-0.625 0.625h-5c-0.345 0-0.625-0.28-0.625-0.625zM30.75 27.875c0 0.345-0.28 0.625-0.625 0.625h-28.25c-0.345 0-0.625-0.28-0.625-0.625v-20c0-0.345 0.28-0.625 0.625-0.625h1.875v16.875c0 1.034 0.841 1.875 1.875 1.875h5c1.034 0 1.875-0.841 1.875-1.875v-16.875h17.625c0.345 0 0.625 0.28 0.625 0.625z"></path>
<path d="M26.625 10.688h-10c-0.69 0-1.25 0.56-1.25 1.25s0.56 1.25 1.25 1.25h10c0.69 0 1.25-0.56 1.25-1.25s-0.56-1.25-1.25-1.25z"></path>
<path d="M16 17.563h1.25c0.345 0 0.625-0.28 0.625-0.625v-1.25c0-0.345-0.28-0.625-0.625-0.625h-1.25c-0.345 0-0.625 0.28-0.625 0.625v1.25c0 0.345 0.28 0.625 0.625 0.625z"></path>
<path d="M21 17.563h1.25c0.345 0 0.625-0.28 0.625-0.625v-1.25c0-0.345-0.28-0.625-0.625-0.625h-1.25c-0.345 0-0.625 0.28-0.625 0.625v1.25c0 0.345 0.28 0.625 0.625 0.625z"></path>
<path d="M26 17.563h1.25c0.345 0 0.625-0.28 0.625-0.625v-1.25c0-0.345-0.28-0.625-0.625-0.625h-1.25c-0.345 0-0.625 0.28-0.625 0.625v1.25c0 0.345 0.28 0.625 0.625 0.625z"></path>
<path d="M16 21.313h1.25c0.345 0 0.625-0.28 0.625-0.625v-1.25c0-0.345-0.28-0.625-0.625-0.625h-1.25c-0.345 0-0.625 0.28-0.625 0.625v1.25c0 0.345 0.28 0.625 0.625 0.625z"></path>
<path d="M21 21.313h1.25c0.345 0 0.625-0.28 0.625-0.625v-1.25c0-0.345-0.28-0.625-0.625-0.625h-1.25c-0.345 0-0.625 0.28-0.625 0.625v1.25c0 0.345 0.28 0.625 0.625 0.625z"></path>
<path d="M26 21.313h1.25c0.345 0 0.625-0.28 0.625-0.625v-1.25c0-0.345-0.28-0.625-0.625-0.625h-1.25c-0.345 0-0.625 0.28-0.625 0.625v1.25c0 0.345 0.28 0.625 0.625 0.625z"></path>
<path d="M16 25.063h1.25c0.345 0 0.625-0.28 0.625-0.625v-1.25c0-0.345-0.28-0.625-0.625-0.625h-1.25c-0.345 0-0.625 0.28-0.625 0.625v1.25c0 0.345 0.28 0.625 0.625 0.625z"></path>
<path d="M21 25.063h1.25c0.345 0 0.625-0.28 0.625-0.625v-1.25c0-0.345-0.28-0.625-0.625-0.625h-1.25c-0.345 0-0.625 0.28-0.625 0.625v1.25c0 0.345 0.28 0.625 0.625 0.625z"></path>
<path d="M26 25.063h1.25c0.345 0 0.625-0.28 0.625-0.625v-1.25c0-0.345-0.28-0.625-0.625-0.625h-1.25c-0.345 0-0.625 0.28-0.625 0.625v1.25c0 0.345 0.28 0.625 0.625 0.625z"></path>
</symbol>
<symbol id="icon-butterfly" viewBox="0 0 32 32">
<path fill="#ff817e" style="fill: var(--color1, #ff817e)" d="M15.974 27.416c0 0 17.019-8.823 4.362-24.803 0 0-0.836 4.735-5.629 8.379 0 0-6.008 4.963-2.625 11.99 0 0-2.73-1.972-5.767-1.287 0 0-3.383 1.254-6.315-0.15 0 0 2.919 11.527 13.982 6.576 0 0-4.193 0.679-7.889-2.521 0 0 4.147 2.423 8.313 1.633 0 0 5.166-5.002 5.682-13.486 0 0 1.247 6.021-4.114 13.669zM30.87 11.768c-1.078-0.627-2.462-0.255-3.082 0.836s-0.248 2.488 0.829 3.115c0.496 0.287 1.051 0.359 1.567 0.255-0.562 1.607-4.408 11.154-16.424 13.407 0 0 12.682-0.784 18.064-14.74 0.007-0.013 0.007-0.026 0.007-0.033 0.424-1.045 0.033-2.266-0.96-2.841z"></path>
</symbol>
<symbol id="icon-facebook" viewBox="0 0 32 32">
<path d="M21.329 5.313h2.921v-5.088c-0.504-0.069-2.237-0.225-4.256-0.225-4.212 0-7.097 2.649-7.097 7.519v4.481h-4.648v5.688h4.648v14.312h5.699v-14.311h4.46l0.708-5.688h-5.169v-3.919c0.001-1.644 0.444-2.769 2.735-2.769z"></path>
</symbol>
<symbol id="icon-google-plus" viewBox="0 0 32 32">
<path d="M20.694 0h-7.632c-3.401 0-5.755 0.746-7.873 2.496-1.666 1.438-2.661 3.527-2.661 5.589 0 3.177 2.422 6.554 6.911 6.554 0.432 0 0.909-0.044 1.331-0.084l-0.062 0.151c-0.18 0.432-0.351 0.84-0.351 1.477 0 1.239 0.598 2.004 1.176 2.742l0.073 0.094-0.129 0.009c-1.854 0.127-5.304 0.364-7.824 1.913-2.977 1.77-3.208 4.344-3.208 5.091 0 2.97 2.768 5.969 8.953 5.969 7.191 0 10.954-3.968 10.954-7.886 0.001-2.899-1.699-4.33-3.503-5.849l-1.522-1.184c-0.47-0.39-1.056-0.874-1.056-1.773 0-0.883 0.586-1.466 1.103-1.98l0.054-0.055c1.644-1.294 3.506-2.762 3.506-5.937 0-3.192-1.994-4.841-2.954-5.634h2.533c0.031 0 0.062-0.009 0.088-0.025l2.182-1.372c0.062-0.039 0.091-0.115 0.071-0.186s-0.085-0.119-0.158-0.119zM11.439 30.251c-4.384 0-7.329-2.047-7.329-5.095 0-1.99 1.205-3.436 3.577-4.295 1.9-0.639 4.353-0.671 4.377-0.671 0.415 0 0.624 0 0.956 0.042 3.067 2.183 4.542 3.329 4.542 5.512-0 2.781-2.347 4.508-6.123 4.508zM11.398 13.469c-3.679 0-5.206-4.836-5.206-7.425 0-1.317 0.299-2.327 0.915-3.090 0.669-0.836 1.813-1.377 2.917-1.377 3.378 0 5.246 4.54 5.246 7.678 0 0.495 0 2.001-1.040 3.047-0.7 0.698-1.838 1.167-2.832 1.167z"></path>
<path d="M31.39 14.946h-4.021v-4.007c0-0.091-0.074-0.165-0.165-0.165h-1.73c-0.091 0-0.165 0.074-0.165 0.165v4.007h-4.001c-0.091 0-0.165 0.074-0.165 0.165v1.753c0 0.091 0.074 0.165 0.165 0.165h4.001v4.033c0 0.091 0.074 0.165 0.165 0.165h1.73c0.091 0 0.165-0.074 0.165-0.165v-4.034h4.021c0.091 0 0.165-0.074 0.165-0.165v-1.752c0-0.092-0.074-0.165-0.165-0.165z"></path>
</symbol>
<symbol id="icon-instagram" viewBox="0 0 32 32">
<path d="M25.319 0h-18.638c-3.684 0-6.681 2.997-6.681 6.681v18.638c0 3.684 2.997 6.681 6.681 6.681h18.638c3.684 0 6.681-2.997 6.681-6.681v-18.638c0-3.684-2.997-6.681-6.681-6.681zM6.681 30.125c-2.65 0-4.806-2.156-4.806-4.806v-12.548h4.97c-0.523 1.209-0.813 2.542-0.813 3.941 0 5.496 4.472 9.968 9.968 9.968s9.968-4.472 9.968-9.968c0-1.399-0.29-2.732-0.813-3.941h4.97v12.548c0 2.65-2.156 4.806-4.806 4.806zM25.319 1.875c2.65 0 4.806 2.156 4.806 4.806v4.215h-6.035c-1.811-2.513-4.763-4.152-8.090-4.152s-6.279 1.639-8.090 4.152h-6.035v-4.215c0-2.65 2.156-4.806 4.806-4.806zM24.093 16.712c0 4.462-3.63 8.093-8.093 8.093s-8.093-3.63-8.093-8.093 3.63-8.093 8.093-8.093 8.093 3.63 8.093 8.093z"></path>
<path d="M24.831 5.313h1.875v1.875h-1.875z"></path>
<path d="M10.305 16.712c0 3.14 2.555 5.695 5.695 5.695s5.695-2.555 5.695-5.695c0-3.14-2.555-5.695-5.695-5.695s-5.695 2.555-5.695 5.695zM19.82 16.712c0 2.106-1.714 3.82-3.82 3.82s-3.82-1.714-3.82-3.82 1.714-3.82 3.82-3.82 3.82 1.714 3.82 3.82z"></path>
</symbol>
<symbol id="icon-twitter" viewBox="0 0 32 32">
<path d="M32 6.078c-1.19 0.522-2.458 0.868-3.78 1.036 1.36-0.812 2.398-2.088 2.886-3.626-1.268 0.756-2.668 1.29-4.16 1.588-1.204-1.282-2.92-2.076-4.792-2.076-3.632 0-6.556 2.948-6.556 6.562 0 0.52 0.044 1.020 0.152 1.496-5.454-0.266-10.28-2.88-13.522-6.862-0.566 0.982-0.898 2.106-0.898 3.316 0 2.272 1.17 4.286 2.914 5.452-1.054-0.020-2.088-0.326-2.964-0.808 0 0.020 0 0.046 0 0.072 0 3.188 2.274 5.836 5.256 6.446-0.534 0.146-1.116 0.216-1.72 0.216-0.42 0-0.844-0.024-1.242-0.112 0.85 2.598 3.262 4.508 6.13 4.57-2.232 1.746-5.066 2.798-8.134 2.798-0.538 0-1.054-0.024-1.57-0.090 2.906 1.874 6.35 2.944 10.064 2.944 12.072 0 18.672-10 18.672-18.668 0-0.29-0.010-0.57-0.024-0.848 1.302-0.924 2.396-2.078 3.288-3.406z"></path>
</symbol>
</defs>
</svg>
